<?xml version="1.0" standalone="no"?>
<!DOCTYPE svg PUBLIC "-//W3C//DTD SVG 20010904//EN" "http://www.w3.org/TR/2001/REC-SVG-20010904/DTD/svg10.dtd">
<svg version="1.0" xmlns="http://www.w3.org/2000/svg" width="247.000000pt" height="247.000000pt"
  viewBox="0 0 247.000000 247.000000" preserveAspectRatio="xMidYMid meet">

  <g transform="translate(0.000000,247.000000) scale(0.100000,-0.100000)" fill="#000000" stroke="none">
    <path d="M0 1235 l0 -1235 1235 0 1235 0 0 1235 0 1235 -1235 0 -1235 0 0
-1235z m1086 586 c80 -37 94 -139 48 -348 -15 -65 -29 -150 -31 -189 -5 -63
-3 -74 16 -93 51 -51 154 -9 222 93 67 99 110 241 144 468 8 54 35 82 78 82
47 0 77 -27 77 -69 0 -18 -20 -168 -45 -334 -25 -166 -45 -303 -45 -305 0 -2
34 5 76 16 97 24 138 22 142 -11 2 -12 1 -34 -2 -47 -7 -25 -15 -28 -158 -59
-70 -15 -78 -19 -78 -39 0 -13 -9 -57 -19 -99 -54 -209 -164 -317 -324 -317
-123 0 -187 54 -187 159 0 73 28 128 97 191 53 48 187 121 274 149 35 11 37
14 43 69 4 31 9 75 12 97 l6 40 -32 -55 c-71 -126 -164 -185 -281 -178 -75 4
-108 21 -146 77 -39 58 -39 121 1 321 20 99 36 193 36 209 0 29 -22 61 -41 61
-28 0 -93 -46 -135 -95 -26 -30 -54 -55 -61 -55 -7 0 -20 11 -28 24 -14 22
-14 28 -1 60 19 47 101 133 148 157 78 40 137 46 194 20z" />
    <path d="M1295 927 c-113 -55 -165 -109 -165 -174 0 -48 25 -73 72 -73 93 0
142 67 182 253 8 36 -3 35 -89 -6z" />
  </g>
</svg>